<svg width="3800" height="2402" viewBox="0 0 3800 2402" fill="none" xmlns="http://www.w3.org/2000/svg">
<path d="M3782.38 0H17.6219C7.88961 0 0 6.94753 0 15.5177V2386.48C0 2395.05 7.88961 2402 17.6219 2402H3782.38C3792.11 2402 3800 2395.05 3800 2386.48V15.5177C3800 6.94753 3792.11 0 3782.38 0Z" fill="url(#paint0_radial_2_26)"/>
<path opacity="0.37449" fill-rule="evenodd" clip-rule="evenodd" d="M25.1889 637.738C24.5548 637.997 23.758 639.054 22.7351 640.809C21.2998 643.219 11.2346 665.343 -1.54463 693.691V934.902C50.3087 964.094 120.255 988.414 219.04 1011.56C263.876 1022.06 408.785 1046.7 479.145 1055.79C607.003 1072.31 760.737 1087.07 958.541 1101.74C1047.89 1108.37 1154.69 1115.4 1502.12 1137.68C1931.96 1165.24 2162.28 1183.31 2408.76 1208.75C3025.65 1272.44 3471.78 1366.66 3798.51 1502.28V1441.21C3589.97 1385.5 3387.43 1341.86 3143.47 1299.62C2934.27 1263.4 2788.55 1242.07 2571.46 1215.81C2297.36 1182.64 2103.84 1164.79 1484.43 1115.5C1139.34 1088.04 1002.68 1075.11 822.161 1053.06C724.505 1041.14 518.728 1005.5 457.965 989.946C284.101 945.434 181.576 899.147 111.204 833.346C56.8838 782.557 30.1451 725.247 27.7729 654.798C27.3919 643.483 26.8906 638.438 25.7066 637.739C25.5276 637.634 25.4005 637.651 25.1889 637.738ZM-1.54483 939.11V1083.43C7.66991 1085.01 15.6461 1086.25 20.2809 1086.95C231.352 1119.15 447.191 1138.23 750.203 1151.32C837.887 1155.11 1072.88 1162.12 1252.45 1166.22C1386.11 1169.27 1610.53 1175.08 1700.19 1177.94C2023.53 1188.24 2317.46 1209.7 2570.26 1241.4C2674.3 1254.44 2921.1 1297.27 3006.51 1317.14C3260.56 1376.25 3462.84 1444.54 3656.01 1536.4C3702.12 1558.33 3751.09 1584.02 3798.46 1610.66V1505.69C3591.04 1419.54 3335.26 1350.14 3015.3 1294.27C2790.35 1255 2533.59 1222.41 2239.76 1195.45C2033.02 1176.47 1856.63 1163.72 1348.37 1130.96C913.607 1102.95 766.482 1091.53 592.329 1072.51C307.811 1041.44 127.728 1002.92 18.913 949.686C11.4505 946.035 4.715 942.545 -1.6217 939.11L-1.54483 939.11ZM-1.54483 1086.16V1253.79C76.7083 1258.78 160.855 1262.31 248.357 1264.36C455.324 1269.23 648.835 1265.93 1008.12 1251.51C1455.44 1233.56 1519.54 1231.16 1616.12 1228.54C2019.71 1217.61 2310.13 1226.52 2574.67 1257.77C2681.95 1270.44 2853.02 1300.48 2945.58 1323.05C3289.56 1406.9 3566.15 1542.09 3798.49 1740.54V1615.22C3536.31 1467.23 3232.72 1361.76 2873.26 1293.71C2845.7 1288.5 2818.28 1283.49 2790.73 1278.7C2524.44 1232.46 2253.15 1205.98 1874.84 1188.29C1741.78 1182.06 1553.5 1176.41 1240.84 1169.18C721.682 1157.17 481.282 1144.89 232.574 1117.89C141.328 1107.99 76.4397 1099.29 -1.56963 1086.16L-1.54483 1086.16ZM1909.06 1227.18C1750.06 1227.47 1566.94 1232.21 1335.52 1241.62C702.63 1267.34 622.001 1269.71 392.345 1269.37C261.47 1269.18 122.329 1264.56 -1.5531 1256.75V1437.34C115.155 1439.94 239.273 1436.92 375.17 1428.24C578.582 1415.26 727.873 1399.85 1086.91 1354.89C1170.53 1344.42 1275.44 1331.42 1320.15 1325.89C1589.31 1292.63 1790.45 1273.76 1974.69 1264.59C2418.34 1242.52 2770.86 1286.33 3070.77 1400.84C3230.71 1461.9 3379.1 1544.72 3514.26 1648.31C3610.19 1721.83 3714.52 1821.42 3798.51 1919.2V1746.23C3618.63 1590.93 3396.51 1467.2 3149.3 1385.15C3023.72 1343.47 2891.53 1310.73 2747.91 1286.2C2621.18 1264.56 2485.62 1249.32 2337.99 1239.8C2203 1231.1 2068.09 1226.89 1909.1 1227.18L1909.06 1227.18ZM2166.32 1262.32C1950.06 1263.57 1702.67 1283.04 1375.81 1322.37C1332.37 1327.59 1236.03 1339.54 1161.81 1348.86C752.975 1400.25 620.509 1414.43 420.65 1428.47C266.173 1439.33 126.611 1443.38 -1.54897 1440.64V1599.97C87.9121 1593.49 182.147 1584.23 291.746 1571.42C483.972 1548.96 668.676 1520.8 1008.4 1462.25C1490.86 1379.1 1619.76 1358.59 1804.86 1335.56C2298.14 1274.18 2646.78 1289.29 2939.29 1384.8C3054.88 1422.54 3174.31 1481.01 3268.36 1545.84C3460.67 1678.37 3617.65 1864.78 3741.44 2107.41L3757.84 2139.36L3774.63 2107.18C3779.88 2097.12 3789.71 2078.56 3798.52 2061.92V1927.04C3714.61 1828.76 3608.61 1726.7 3513.49 1653.07C3332.77 1513.17 3119.1 1407.8 2892.18 1346.47C2811.57 1324.68 2797.8 1321.65 2691.22 1303.14C2607.02 1288.51 2571.77 1283.24 2532.37 1279.26C2414.62 1267.34 2296.12 1261.56 2166.37 1262.31L2166.32 1262.32Z" fill="white" fill-opacity="0.21461" stroke="white" stroke-opacity="0.66667"/>
<defs>
<radialGradient id="paint0_radial_2_26" cx="0" cy="0" r="1" gradientUnits="userSpaceOnUse" gradientTransform="translate(1900.01 1200.96) rotate(-0.0881407) scale(3269.33 1200.99)">
<stop stop-color="#C3D6B4"/>
<stop offset="1" stop-color="#C3D6B4"/>
</radialGradient>
</defs>
</svg>
