<svg width="546" height="502" viewBox="0 0 546 502" fill="none" xmlns="http://www.w3.org/2000/svg">
<path d="M344.2 385.4C343.2 384.2 343.3 384.9 343.1 384.8C344.8 386.6 344.3 385.2 344.2 385.4Z" fill="#2B3E50"/>
<path d="M337.4 402.4L337.8 402.1C337.8 402.1 336.9 402.6 336.1 403C335.2 403.4 334.3 403.9 334.3 403.9C334.3 403.9 335.1 403.6 335.9 403.2C336.7 402.8 337.4 402.4 337.4 402.4Z" fill="#2B3E50"/>
<path d="M313.1 408C315.6 408.5 322.1 406.8 326.5 406H327.3C327.3 406 327.8 405.7 328.2 405.5C328.7 405.2 329.1 405 329.1 405C326.5 405.7 323.5 406.5 320.6 407.1C317.8 407.5 315 407.9 313.1 408Z" fill="#2B3E50"/>
<path d="M299.7 407.1C300.5 407.4 296.8 407.4 302.8 407.2C302.5 407.2 302.4 407.2 302.2 407.1C301.7 407.1 301 407.1 299.7 407.1Z" fill="#2B3E50"/>
<path d="M302.3 407.1C304.9 407 300.5 406.9 302.3 407.1Z" fill="#2B3E50"/>
<path d="M290.2 406.9C290.2 406.9 291.1 406.9 291.9 406.9C292.8 406.9 293.6 406.9 293.6 406.9C293.2 406.8 292.3 406.7 291.6 406.6C290.9 406.5 290.4 406.4 291 406.4C287.5 406.3 288.2 406.5 290.2 406.9Z" fill="#2B3E50"/>
<path d="M286.9 407.1C286.9 407.1 287.3 407.1 287.8 407.1C288.2 407.1 288.7 407.1 288.7 407.1C288.3 407.1 287.9 407 286.9 407.1Z" fill="#2B3E50"/>
<path d="M292.5 407.3C292.5 407.3 291.5 407.3 290.6 407.3C289.6 407.3 288.7 407.3 288.7 407.3C289.2 407.5 289.2 407.7 290.4 407.4C290.1 407.4 290.8 407.3 292.5 407.3Z" fill="#2B3E50"/>
<path d="M294.6 407.5C296.5 407.7 299.1 407.9 295.6 408C298.9 408.1 300.3 407.9 300.1 407.7C299.8 407.6 297.9 407.6 294.6 407.5Z" fill="#2B3E50"/>
<path d="M311.9 408.8L314.5 408.7L316.7 408.2C315.7 408.5 311.7 408.6 311.9 408.8Z" fill="#2B3E50"/>
<path d="M269.5 402.5C269.3 402.6 270.4 403.3 270.6 403.5L273 404.1C271.8 403.6 269.5 402.8 269.5 402.5Z" fill="#2B3E50"/>
<path d="M270.6 403.5C270.6 403.5 270.4 403.4 270 403.4C269.7 403.3 269.2 403.2 268.8 403.1C268.3 403 267.9 402.8 267.6 402.8C267.3 402.7 267 402.6 267 402.6C270.1 403.7 270.7 403.7 270.6 403.5Z" fill="#2B3E50"/>
<path d="M286.2 407.8C286.2 407.8 286.6 407.8 287.2 407.8C287.8 407.8 288.6 407.8 289.4 407.8C290.2 407.8 291 407.8 291.6 407.8C292.2 407.8 292.6 407.8 292.6 407.8C292.6 407.8 292.1 407.8 291.4 407.8C290.7 407.8 289.7 407.8 288.8 407.8C286.9 407.7 285 407.7 285 407.7L286.2 407.8Z" fill="#2B3E50"/>
<path d="M257.3 396.1C257.3 396.1 257.7 396.3 258.2 396.6C258.4 396.7 258.6 396.8 258.8 396.9C259 397 259.1 397 259.1 397C259.1 397 258.9 396.9 258.6 396.8C258.3 396.6 257.9 396.4 257.5 396.2C257.1 396 256.7 395.8 256.4 395.6C256.1 395.4 255.9 395.3 255.9 395.3C255.9 395.3 256 395.4 256.1 395.4C256.2 395.5 256.4 395.6 256.5 395.7C256.9 395.9 257.3 396.1 257.3 396.1Z" fill="#2B3E50"/>
<path d="M251.4 389.7C252.4 390.8 250.8 387.8 251.7 389C250.5 387 249.6 385.4 249 383.8C249.5 385.4 250.2 387.3 251.4 389.7Z" fill="#2B3E50"/>
<path d="M248.4 381.1C248.4 381.5 248.5 382 248.6 382.4C248.7 382.6 248.7 382.8 248.8 383.1C248.9 383.3 249 383.6 249 383.8L248.8 383.1L248.7 382.4C248.6 382 248.5 381.5 248.4 381.1Z" fill="#2B3E50"/>
<path d="M261.3 399.7C261.1 399.5 260.7 399.1 259.1 397.8L260.1 398.9C260.4 399.2 260.8 399.5 261.3 399.7Z" fill="#2B3E50"/>
<path d="M260.1 399.1C258.8 398.2 257.9 397.6 257.5 397.3C257.8 397.5 258.6 398 260.1 399.1Z" fill="#2B3E50"/>
<path d="M261.6 399.9C261.5 399.8 261.4 399.8 261.3 399.7C261.4 399.8 261.5 399.9 261.6 399.9Z" fill="#2B3E50"/>
<path d="M276.3 405.8C274.1 405.6 269.5 404.5 273.8 406.1C275.4 406.2 273 405.3 276.3 405.8Z" fill="#2B3E50"/>
<path d="M263 401.2C263 401.2 263.9 401.7 264.8 402.1C265.7 402.5 266.6 402.9 266.6 402.9C266.6 402.8 266 402.3 267 402.6C267 402.6 266 402.3 265 401.9C264.5 401.7 264 401.5 263.6 401.4C263.2 401.3 263 401.2 263 401.2Z" fill="#2B3E50"/>
<path d="M261.2 400.4C261.2 400.4 261.6 400.6 262.1 400.8C262.6 401 263 401.2 263 401.2C263 401.2 262.7 401 262.3 400.9C262 400.7 261.7 400.5 261.7 400.5L261.2 400.4Z" fill="#2B3E50"/>
<path d="M249.3 386.9C248.5 385.5 248 383.9 247.8 382C247.8 384 248.4 386.1 249.4 388C249.5 388.1 249.8 388.3 249.8 388.3C249.9 388.2 249.7 387.9 249.3 386.9Z" fill="#2B3E50"/>
<path d="M253.4 393.6C253.3 393.5 253.2 393.4 253.1 393.3C253.3 393.5 253.4 393.7 253.4 393.6Z" fill="#2B3E50"/>
<path d="M258.1 366.8C258 366.8 257.9 366.9 257.8 366.9V367L258.1 366.8Z" fill="#2B3E50"/>
<path d="M249.5 388.4C249.7 388.8 249.8 389.1 250 389.4C250.2 389.7 250.3 389.9 250.5 390.2C250.8 390.7 251.1 391.1 251.5 391.4C250.8 390.4 250.1 389.3 249.5 388.1C249.3 387.9 249.2 387.9 249.5 388.4Z" fill="#2B3E50"/>
<path d="M249.4 376.3C249.2 376.6 249 377 248.8 377.4C248.6 377.8 248.4 378.2 248.3 378.6C248.5 377.9 249.3 376.6 249.4 376.3Z" fill="#2B3E50"/>
<path d="M252.9 392.9C253 393 253 393 253.1 393.1C252.8 392.6 252.8 392.7 252.9 392.9Z" fill="#2B3E50"/>
<path d="M252.9 392.9C252.3 392.3 251.9 391.8 251.4 391.4C252 392.2 252.6 392.9 253.2 393.4C253.1 393.2 253 393 252.9 392.9Z" fill="#2B3E50"/>
<path d="M262.4 361.2C262.3 361.7 258.3 364.1 254.8 366.1C253.3 367.4 253.3 368 254 367.9C254.4 367.9 254.9 367.8 255.6 367.6C256.2 367.4 257 367.1 257.8 366.8C257.8 366.6 257.6 366.4 261 364.2C260.3 364.4 258.3 365.4 256.9 366.2C255.5 367 254.6 367.5 255.8 366.3C256.9 365.5 257.7 365 258.3 364.6C258.9 364.2 259.3 364 259.7 363.9C260.4 363.6 260.8 363.5 262 363C260.9 363.3 262.3 362.3 263.9 361.3C265.5 360.3 267.2 359.3 266.5 359.2C266.5 359.2 265.4 359.7 264.4 360.3C263.4 360.9 262.3 361.5 262.3 361.5C262.2 361.7 263.7 360.8 262.4 361.2Z" fill="#2B3E50"/>
<path d="M252.1 371.5C252.1 371.5 251.8 371.8 251.6 372.1C251.4 372.4 251.1 372.7 251.1 372.7C252.3 371.4 253.3 370.6 255.3 369.4C257.2 367.7 257.7 367.3 257.7 367.1C257.7 367.1 257.3 367.4 256.7 367.8C256.1 368.2 255.3 368.8 254.6 369.4C253.8 370 253.1 370.7 252.6 371.1C252.1 371.6 251.8 371.9 251.8 371.9L252.1 371.5Z" fill="#2B3E50"/>
<path d="M248.1 378.4C248 377.8 248.2 376.7 248.4 375.9C248.5 375.5 248.5 375.2 248.5 375.1C248.4 375 248.2 375.1 247.9 375.6C247 377.7 247 378.5 247 379.1C247 379.4 247.1 379.6 247.1 379.9C247.1 380.1 247.1 380.2 247.1 380.5C247.1 380.7 247.1 381 247.2 381.3C247.2 379.5 247.4 378.8 247.5 378.6C247.6 378.4 247.5 378.7 247.5 379.1C247.5 379.5 247.5 379.9 247.6 379.9C247.7 379.9 247.7 379.6 248.1 378.4C247.8 379.7 247.8 380.9 247.8 382C247.8 380.8 247.9 379.6 248.3 378.6C248.3 378.7 248.3 378.7 248.2 378.7C248.1 379 248 379 248.1 378.7V378.6C248.1 378.6 248.1 378.5 248.1 378.4C248.4 377.5 248.5 377.4 248.4 377.7C248.4 377.8 248.3 378 248.3 378.2C248.3 378.4 248.2 378.6 248.2 378.8V378.9C248.2 378.9 248.5 377.3 249.2 375.7C249.4 375.3 249.6 374.9 249.8 374.6C250 374.3 250.2 373.9 250.4 373.7C250.6 373.4 250.8 373.2 250.9 373C251 372.8 251.1 372.8 251.1 372.8C250.6 373.4 250.1 374 249.5 374.9C249 375.7 248.5 376.8 248.1 378.4Z" fill="#2B3E50"/>
<path d="M269.5 405.8C269.3 405.7 269.3 405.7 269.3 405.6C268.8 405.5 268.6 405.4 269.5 405.8Z" fill="#2B3E50"/>
<path d="M266.5 404.4C267.1 404.6 267.6 404.5 269.3 405.2C270.8 405.8 269.2 405.4 269.3 405.6C270.4 405.8 273.2 406.5 269.9 405.2C269.9 405.2 269.8 405.2 269.6 405.1C269.5 405.1 269.3 405 269.3 405C266.3 403.9 262.9 401.7 263.4 401.8C264 402.7 264.6 403.2 266.5 404.4Z" fill="#2B3E50"/>
<path d="M251.9 393.8C251.9 393.8 251.8 393.7 251.7 393.6C251.6 393.5 251.4 393.3 251.3 393C250.9 392.5 250.4 391.9 250 391.3C249.6 390.6 249.1 390 248.8 389.4C248.5 388.9 248.3 388.5 248.3 388.5C248.3 388.5 248.6 389.3 248.9 390C249.3 390.8 249.6 391.5 249.6 391.5L249.7 391.2C251.7 394.4 251.5 393.5 251.9 393.8Z" fill="#2B3E50"/>
<path d="M258.8 366.6C258.8 366.6 258.7 366.8 258.6 367C258.5 367.2 258.4 367.4 258.4 367.4C258.4 367.4 258.6 367.2 258.8 367C259.1 366.8 259.4 366.5 259.8 366.2C260.5 365.6 261.2 365 261.2 365C261.2 365 260.6 365.4 260 365.8C259.4 366.2 258.8 366.6 258.8 366.6Z" fill="#2B3E50"/>
<path d="M266.2 362.7L266.1 363.2L268 362L266.2 362.7Z" fill="#2B3E50"/>
<path d="M369.6 452.3L367.6 452.5C368.6 452.4 369.2 452.4 369.6 452.3Z" fill="#2B3E50"/>
<path d="M383.8 451.6L384.1 451.4C383.5 451.5 383.2 451.6 383.8 451.6Z" fill="#2B3E50"/>
<path d="M474.3 358.7C476.9 359.8 479.8 361.1 479.6 360.6L478.9 360C476.9 359.6 475.5 359.1 474.3 358.7Z" fill="#2B3E50"/>
<path d="M498.2 431.7C498.5 431.7 498.8 431.6 499 431.6C499.6 431.3 500.2 431 500.7 430.7C500 430.9 499.1 431.3 498.2 431.7Z" fill="#2B3E50"/>
<path d="M496.8 433.9L493.1 434.6C493.9 434.5 495.1 434.3 496.8 433.9Z" fill="#2B3E50"/>
<path d="M292 453L289.7 453.4C293.3 453.4 291.7 453.2 292 453Z" fill="#2B3E50"/>
<path d="M351.9 346.4C353.1 346.5 354.2 346.5 355.2 346.6C356.2 346.7 357.1 346.7 358 346.7C354.9 346.3 352.7 346 351.9 346.4Z" fill="#2B3E50"/>
<path d="M375 447.4C373.8 447.5 373.3 447.6 373.3 447.7C374.5 447.6 375.2 447.5 375 447.4Z" fill="#2B3E50"/>
<path d="M365 346.8C364.6 346.8 364.1 346.7 363.7 346.7C361.9 346.7 360.1 346.8 357.9 346.7C360.1 346.9 362.6 347 365 346.8Z" fill="#2B3E50"/>
<path d="M13.9 450.4C13.7 450.5 13.5 450.6 13.4 450.6C13.3 450.7 13.6 450.5 13.9 450.4Z" fill="#2B3E50"/>
<path d="M59.2 486.6C58.4 486.5 57.1 486.3 55.9 486.1C56.4 486.2 57.4 486.4 59.2 486.6Z" fill="#2B3E50"/>
<path d="M299 353.1C298.7 353.2 297.2 353.5 299 353.1Z" fill="#2B3E50"/>
<path d="M289.9 353.3C290.3 353.2 290.5 353 290.6 352.9C290.5 353.1 290.3 353.2 289.9 353.3Z" fill="#2B3E50"/>
<path d="M383.3 344.6C383.4 344.6 383.4 344.6 383.5 344.6C383 344.5 383.1 344.5 383.3 344.6Z" fill="#2B3E50"/>
<path d="M296.3 353.4C297 353.3 297.8 353.2 298.6 353.1C298.2 353.1 297.5 353.2 296.3 353.4Z" fill="#2B3E50"/>
<path d="M296.7 353.6C296.1 353.7 295.6 353.8 295.1 353.9C294.9 354 295.1 354 296.7 353.6Z" fill="#2B3E50"/>
<path d="M301.4 352.6C300.4 352.8 299.4 353 298.5 353.1C298.9 353.1 299 353.1 298.9 353.1C299.5 353 300.2 352.8 301.4 352.6Z" fill="#2B3E50"/>
<path d="M162.1 442.3C162 442.3 161.8 442.3 161.7 442.2C159.8 442.3 160.7 442.3 162.1 442.3Z" fill="#2B3E50"/>
<path d="M520.4 371.4C520.3 371.4 520.3 371.3 520.2 371.3C520.3 371.4 520.4 371.5 520.4 371.4Z" fill="#2B3E50"/>
<path d="M526.3 374.8C525 374.2 523.9 373.7 523 373.2C522.1 372.7 521.3 372.1 520.4 371.5C520.4 371.5 520.7 372 521 372.6C521.3 373.2 521.6 373.7 521.6 373.7C521.6 373.7 522.8 373.9 523.9 374.2C524.5 374.3 525 374.5 525.5 374.6C526 374.7 526.3 374.8 526.3 374.8Z" fill="#2B3E50"/>
<path d="M335.6 453.2L340.2 453.5C334.6 454.2 330.5 454 334.9 454.5C335.2 453.8 339.7 453.7 344.2 453.7C348.7 453.6 353.2 453.4 353.5 452.8L356.6 453C355.7 453 355.6 453.1 354.7 453.1C360.7 453.6 359.1 452 366.8 451.9C369.5 451.9 371.3 452 369.5 452.3L375.4 451.7C377.1 451.6 376.7 451.9 375 452C375 452 377.3 451.9 379.5 451.7C381.8 451.5 384 451.4 384 451.4H383.9C385.2 451.1 388.1 450.6 389.5 450.4C391.8 450.4 388.4 450.6 389 450.7C389 450.7 390.2 450.5 391.5 450.4C392.7 450.2 394 450 394 450C396.1 450.2 391.9 450.9 388.5 451C393.3 452 392.6 450.4 402.8 450.4C402.8 450.4 401.6 450.5 400.4 450.7C399.2 450.8 398 451 398 451C401.1 451.6 404.8 450.9 410.2 450.9C408.9 450.8 399.4 450.7 404.8 449.8C406.3 449.8 408.4 449.6 411.3 449.1C411.4 449.6 414.2 449.2 417.8 448.8L417.6 449.5C421.5 448.9 421.1 448.6 423.4 448.1C427.7 447.6 428.7 448 429.7 448.3C436.6 447.5 424.8 448.1 433 447C435.9 446.7 438.3 446.4 440.9 445.9C442.2 445.7 443.5 445.4 444.9 445.1C446.3 444.8 447.8 444.5 449.5 444.1C453.5 443.7 448.9 444.6 450.3 444.5L453.8 443.4C454.7 443.3 454.4 443.5 454.3 443.6C457.2 442.9 454.4 442.9 459.1 441.9C459.7 441.4 462.1 441.2 465.1 440.9C468.1 440.6 471.7 440 474.5 439C476 438.9 473.9 439.5 474.4 439.7C476.4 439.2 477.7 438.8 478.8 438.4C479.9 438.1 480.7 437.8 481.4 437.6C482.9 437.1 484.2 436.7 487.3 435.6L492.9 434.6C488.8 435.2 493.8 433.3 498.1 431.6C496.6 431.8 495.4 431.9 494.5 432C494.5 432 494.9 431.9 495.6 431.7C496.3 431.5 497.1 431.2 498 430.9C499.8 430.3 501.5 429.7 501.5 429.7C502.4 429.6 501.7 430 500.6 430.6C501.1 430.4 501.5 430.2 501.9 430.1C504.5 429.6 503.3 430.3 501.6 431.2C500.7 431.3 499.8 431.4 498.9 431.5C497.3 432.4 495.7 433.2 496.2 433.5C496.6 433.3 497.5 433 498.5 432.7C498.1 432.9 497.8 433.1 498 433.1C498.3 433.1 499 432.8 500.1 432.3L501.9 432.5L502.2 432.1C502.2 432.1 504.6 431.5 506.9 431C509.3 430.4 511.6 429.8 511.6 429.8C514.8 428.4 517.7 426.9 521.1 425.1C524.4 423.3 528.2 421.3 532.8 418.3C530.7 420.2 532.7 419.3 532.9 419.9C530 421 525.4 424.3 519.9 426.3C522.7 425.2 522.2 425.8 521.5 426.1C521.5 426.1 523.8 425 526.1 423.8C528.4 422.6 530.6 421.2 530.6 421.2C530.6 421.7 532.7 420.5 535.1 419.1C533.9 419.2 535.5 418.1 537.6 416.3C538.6 415.4 539.8 414.3 540.8 413.2C541 412.9 541.3 412.6 541.5 412.3C541.7 412 541.9 411.7 542.1 411.4C542.5 410.9 542.8 410.3 543.1 409.8C543.3 409.8 543.4 410 543 410.9C542.6 411.7 541.7 413.1 539.7 415C542.1 413.2 543.1 411.3 543.8 409.5C543.9 409 544.1 408.6 544.2 408.1C544.4 407.6 544.4 407.1 544.6 406.6C544.9 405.5 545.1 404.3 545.3 402.8C545.3 403.5 545.2 404 545.2 404.4C545.1 404.8 545.1 405.1 545.1 405.4C545.2 404.6 545.3 403.5 545.3 402.4C545.2 401.8 545.2 401.2 545.2 400.7C545.1 400.1 545 399.6 544.9 399.1C544.4 397.1 544 395.8 544.4 396.5C544.4 396.5 544.5 396.8 544.6 397.1C544.7 397.4 544.8 397.7 544.8 397.7C544.2 395.6 543 393.1 541.5 390.7C539.9 388.3 538 386 536 384.1C535 383.2 534 382.3 533.1 381.5C532.2 380.8 531.3 380.1 530.5 379.5C528.9 378.4 527.8 377.8 527.4 377.8C527.4 377.7 528.9 377.6 529.4 377.8C529.4 377.8 528.6 377.4 527.3 376.8C526 376.2 524.3 375.4 522.5 374.8C520.7 374.1 519 373.5 517.7 373.1C516.4 372.7 515.5 372.4 515.5 372.4C517 372.4 513.4 368.4 519.6 371.4C518.8 370.9 517.8 370.3 516.6 369.6C515.4 368.9 513.9 368.2 512 367.4C513.2 368.1 514.5 369.8 512.9 369.1C510.9 367.6 510.1 367.2 509.2 366.7C508.8 366.4 508.3 366.2 507.6 365.8C506.9 365.4 506 364.9 504.6 364.1C506.4 365 503.9 365.2 501 364C501.5 364 501.2 362.8 502.3 363.2C502.3 363.2 500.4 362.7 498.4 362.3C496.5 361.9 494.5 361.5 494.5 361.5C496.4 362 495.2 360.7 493.6 359.9C494.3 360.4 487.1 357.7 485.1 357.3L488.2 358.5C484 357.2 481.8 356.9 479.5 356.8C478.4 356.7 477.3 356.6 475.9 356.5C474.5 356.3 472.9 356 470.8 355.5C471.9 355.5 473.7 354.7 469.4 353.6C468.3 353.7 466 353.8 462.9 353.9C461.4 353.9 459.7 353.9 457.9 353.8C456.1 353.7 454.2 353.6 452.3 353.4L450.9 352.8C450.9 352.8 449.4 352.6 448 352.5C446.5 352.4 445 352.2 445 352.2C448.8 351.8 459.3 351.9 465 352.4C461.8 351.5 464.2 351.8 459.3 350.9C457.6 350.2 462 351 463.5 351.3C463.5 351.3 460.7 350.7 457.8 350C455 349.4 452.1 348.9 452.1 348.9C452.3 349.3 450.1 349 447.9 348.8C445.7 348.6 443.5 348.4 443.6 348.7C443.6 348.7 444.4 348.8 445.6 348.9C446.8 349 448.3 349.1 449.9 349.4C453 349.8 456.1 350.2 456.1 350.2C456.5 351 448.6 350.7 440.6 349.4C438.6 348.8 442.3 348.5 442.2 348.2C441.7 348.2 439.7 348 437.8 347.8C435.9 347.6 434.1 347.4 433.7 347.3L437.2 347.4C432.7 346.6 429.7 347.3 424.4 346.1C422.5 345.9 418.9 344.6 418.5 345C421.5 346.1 421.8 348.5 419.7 348.9C419.1 348.7 409.9 347.3 407.8 346.7C404.8 345.8 412.6 345.7 410 344.9C409.9 345.1 408.1 345.2 407.4 345.2C405.4 344.9 408.3 344.7 404 344.5C403.2 345.1 395.3 343.9 401.9 344.9C397.7 344.8 397.4 344.4 392.5 344.2C394 344.7 388 345.5 383.8 345.5C384.1 345.3 383.1 345.1 382.7 344.9C374.1 344.6 369.5 344 361.5 344C360.8 343.8 356.9 343.6 358.5 343.3C357.3 343.4 356.3 343.6 353.8 343.6C351.4 343.3 352.8 343.3 354.3 343.3C355.8 343.3 357.5 343.3 355.7 342.9C355.5 343.1 353.9 343.2 351.9 343.4C349.9 343.6 347.5 343.8 345.7 344C346.3 344.3 348.3 344.2 350.6 344C352.9 343.8 355.6 343.7 357.4 343.6C357.4 344 355.9 344.4 353.3 344.8C350.7 345.2 347.1 345.7 343 346.1C336.4 346.8 340.1 345.8 338.9 346C332.7 346.4 330.1 347.1 327.7 347.7C325.4 348.3 323.3 348.8 318.1 349.2C314 349.2 317.8 348.2 316.8 347.9C322.2 347 325.1 347.2 328.8 346.7L324.3 347C326 346.6 329.6 346.1 331.6 346C329.9 345.9 324.6 346.5 318.6 347.3C312.6 348.1 305.8 349.2 301 349.9C299.3 350.4 296.5 351.2 297.9 351.1L300.9 350.4C303.7 350.3 295.4 352.1 299.2 351.5C295.2 352.6 290.9 354 285.3 355.2L284.1 354.9C284.3 355 287.8 354.3 289.4 353.7C287.1 354.5 280.6 355.1 278.4 356.7C278.4 356.7 279.4 356.5 280.4 356.3C281.4 356.1 282.4 355.9 282.4 355.9C278.5 357.3 274 359.4 269.2 361.1C271.5 360.9 270.2 360.6 273.8 360C272.2 360.1 275.2 359 278.1 358.1C280.9 357.2 283.6 356.5 281.1 356.7C284.9 356.5 287.3 355.3 292.2 354.9C292 354.7 290.4 354.9 294.6 354.1C294.8 354 295.2 353.8 295.5 353.7C295.6 353.7 295.7 353.7 295.8 353.7C295.7 353.7 295.7 353.7 295.6 353.7C295.8 353.6 295.8 353.6 295.5 353.7C294.5 353.8 293.7 353.9 293.3 353.9C295.3 353 301.9 351.6 304.1 351C306.6 350.6 303.1 351.4 304.5 351.4L307.8 350.5C308.2 350.9 314.6 350.2 308.7 351.4L314 350.6C317.2 350.4 321.5 349.9 324.1 349.4C326.6 349.2 330.4 348.2 328.2 348.8C328.2 348.8 330.3 348.5 332.4 348.2C334.5 347.9 336.6 347.7 336.6 347.7L336.7 347.8C340.8 347.5 345.1 347 349.5 346.7C351.7 346.6 353.9 346.5 356.2 346.6C358.5 346.7 360.8 346.8 363.2 347C366 346.9 368.9 346.8 373.6 347.1L374.5 347.5C376.3 347.5 379 347.7 381.4 347.8C383.8 348 386 348.1 386.8 347.9C390.6 349.1 404.2 349.1 410.5 349.9L410.8 349.4C413 349.6 415.1 349.8 417.4 349.9C419.7 350.1 422.1 350.2 424.7 350.4L424.4 349.9C425.6 349.9 426.9 350 428.3 350.2C429.7 350.4 431.3 350.7 433 350.9C434.6 351.2 436.4 351.5 438.2 351.8C440 352.1 441.8 352.4 443.6 352.7C443.1 352.8 441.2 352.5 439.9 352.2C448.5 354.4 458.4 354.5 466 356.9C468 357.2 469.4 357.6 470.7 358C470.5 358 470.4 357.9 470.2 357.9C470.4 357.9 470.7 358 471 358.1C471.8 358.4 472.7 358.6 473.6 359C472.8 358.7 472.1 358.4 471.4 358.2C472.9 358.5 475.1 359.1 477.4 359.5L478.2 360.2C478.4 360.2 478.5 360.3 478.7 360.3C480.8 361 480.5 360.5 479.4 359.9C480.5 360.1 481.6 360.3 482.4 360.4C483.2 361 484.6 361.4 486.1 361.8C487.6 362.2 489.2 362.7 490.3 363.5C491.9 363.5 501.1 367 502.6 366.8C502.6 366.9 503.2 367.2 502.1 366.8C504.4 367.8 506.7 369 508.9 369.7L509.6 370.7C509.6 370.7 510.9 371.1 512.2 371.6C512.9 371.8 513.5 372 514 372.2C514.5 372.4 514.8 372.5 514.8 372.5C517.6 374.5 518.6 375.3 515.5 374.1C517.3 374.9 518.6 375.5 519.6 376C520.6 376.5 521.2 376.9 521.9 377.2C522.5 377.6 523.1 377.9 523.9 378.4C524.7 378.9 525.8 379.4 527.2 380.4L527.4 380.2C527.9 380.6 528.5 381 529.1 381.4C529.7 381.8 530.3 382.3 530.9 382.7C532.1 383.5 533.1 384.5 533.5 385.1C533.7 385.4 534 385.7 534.3 386C534.6 386.4 534.9 386.7 535.3 387.2C535.7 387.6 536.1 388.1 536.5 388.6C536.9 389.1 537.3 389.7 537.8 390.2C539.5 392.5 541.5 395.6 542.5 399.1C543 400.9 543.2 402.6 542.9 404.4C542.6 406.2 541.8 407.9 540.7 409.4C539.6 410.9 538.2 412.2 536.8 413.4C535.4 414.6 533.8 415.5 532.3 416.4C533.7 416.2 532.3 416.9 530.5 417.8C528.7 418.7 526.4 419.6 526.4 420.1C525.6 420.2 523.7 420.9 525.7 419.7C522.6 421.3 520 422.2 517.8 423C515.5 423.8 513.5 424.5 511.3 425.7C510.4 425.7 512.6 424.8 511.9 424.9C511.4 425.1 509.8 425.8 509.1 425.9C508.4 426 510 425.4 511.1 424.9C504.2 427.2 503.6 428.1 503.4 429C499.7 429.7 497.9 430.2 495.4 431.4C494.1 431.5 491.9 431.8 496.3 430.5C495.1 430.8 491.2 431.7 487.7 432.7C484.2 433.6 480.9 434.4 480.9 434.7C480.1 434.7 477.4 435.5 476.7 435.7C471 436.8 470.5 436.9 465 438.1L466.6 437.9C464.5 439.1 462 438.9 457.5 439.9L457.6 439.8C452.4 440.5 451.3 440.6 450.2 440.9C449.1 441.1 448 441.4 442.9 441.8L443.5 442.2C442.7 443.3 434.3 443 428.4 444H430.6C427.4 444.8 421.3 443.7 418 443.9C417.3 443.9 419.1 443.6 420.1 443.5C411.5 443.8 419.1 444.2 412.7 445.1C411.5 444.9 414.1 444.1 409.8 444.4C408.7 444.4 405.6 444.9 402 445.5C398.4 446 394.4 446.5 391.4 446.4C392.7 446.6 394 446.7 391.1 447.1C386.5 447.5 378.7 446.9 374.6 447.9C374 447.9 373.8 447.8 373.8 447.7C370.3 448.1 362.4 448.5 360.3 449C358.7 448.3 353.2 448.6 348.2 448.9C343.2 449.2 338.5 449.5 338.6 448.7C338.6 448.7 337.9 448.7 336.9 448.7C335.9 448.7 334.5 448.7 333.2 448.7C330.5 448.7 327.8 448.8 327.8 448.8L328.1 448.6C321.2 448.5 318.8 448.8 316.3 449.2C314.7 449.1 315.9 448.9 316 448.9C305.9 448.4 304.9 448.5 296.5 449L295.6 448.5C293.3 448.7 281.1 447.2 271.2 447.3C271.3 447.2 271.5 447.2 272.3 447.1C261.2 447.2 245.8 444.1 241.6 445.6L234.2 445.5C243.7 446.4 232.7 446.2 236.6 446.8C232.9 446.6 227 445.5 231.6 445.8L232.3 445.9C234.1 445.1 220.6 444.6 220.9 443.9C202.3 442.2 184.1 440.1 166.6 439L168.6 439.9C168.6 439.9 167.1 439.8 165.5 439.7C164 439.6 162.4 439.5 162.4 439.5C160.8 439.2 160.3 438.8 164.6 439.1C162.3 438.6 157.3 439 157.1 439.2C148.6 438.4 160.5 438.5 157.9 438.4L154.3 438.2L155.1 438.3C152.2 438.4 151.9 438.8 146.7 438.5C143.4 438.2 145 438 143.7 437.9C143.7 437.8 143.3 437.8 141.7 437.8C141.7 437.8 139.8 437.7 137.8 437.6C135.9 437.5 133.9 437.4 133.9 437.4L137 438.1C133.6 438.3 129.8 437.8 133.3 438.6C132 438.3 129.6 438.1 126.6 437.9C123.6 437.7 120.1 437.7 116.6 437.6C113.1 437.5 109.7 437.5 107 437.5C104.3 437.5 102.2 437.5 101.4 437.4C99 437.6 96.6 437.7 94.1 437.8C91.6 437.9 88.9 437.9 86 437.9C87.5 438 88.3 438.6 83.3 438.6C85.1 437.2 74 438.4 69.9 437.6C73.6 438 55.5 438.7 61.3 439.2C57.1 439.4 61 438.7 57.8 438.6C55.3 438.9 52.7 439.2 49.9 439.5C47.2 439.8 44.3 439.9 41.4 440.2C38.5 440.5 35.5 440.9 32.5 441.2C31.7 441.3 31 441.4 30.2 441.5C29.4 441.6 28.7 441.8 27.9 441.9C26.4 442.2 24.8 442.5 23.3 442.8C23.1 443 25.2 442.9 22.7 443.6C22.7 443.6 21 443.7 19.4 443.8C19 443.8 18.6 443.8 18.1 443.9C17.7 444 17.3 444.1 16.9 444.2C16.3 444.3 15.8 444.5 15.8 444.5C14.6 445 14.2 445.5 13.5 446C12.8 446.5 11.8 447.1 9.7 448.1C10.3 447.9 11.3 447.5 9.89999 448.5C7.19999 450.1 4.6 452.2 2.7 455.1C1.8 456.6 1.1 458.3 1 460.2C0.900001 462.1 1.49999 464 2.39999 465.5C4.29999 468.6 6.99999 470.6 9.79999 472.3C12.6 474 15.5 475.3 18.4 476.4C24.3 478.7 30.4 480.4 36.5 481.9C42.6 483.4 48.7 484.8 54.7 486.3C51.5 485.4 53.7 485.8 56.2 486.2C54.6 485.9 56.3 485.8 56 485.5C56 485.5 58.5 486.1 61.1 486.6C63.6 487.1 66.2 487.7 66.2 487.7C68.2 487.3 77.2 489.1 78.4 488.6L75.1 488.3C79.5 488.1 69.3 485.9 70 485C65.1 485.2 57.5 482 49.5 481.7C47.8 481.2 51 481.7 50.1 481.3C48 481.3 45.6 481 41.3 479.8H41.8C35.6 478.5 31.3 477.3 26.8 475.8C24.6 475 22.4 474.2 19.9 473.2C17.5 472.2 14.8 470.9 11.9 469.1L12.5 470C10 468.5 9.6 467.9 8.7 467C7.3 466.2 8.69999 467.6 10.4 468.7C12.1 469.9 14.1 470.9 12.5 470.5C11.8 469.8 10.3 468.8 8.59999 467.5C6.99999 466.2 5.29999 464.4 4.59999 462.4C4.29999 461.4 4.19999 460.4 4.39999 459.5C4.59999 458.6 5 457.7 5.5 456.9C6.5 455.4 7.69999 454.5 8.29999 454.3C9.89999 452.9 9.59999 453 9.29999 453.1C8.99999 453.2 8.59999 453.3 10.4 451.9C10.4 451.9 10.7 451.8 11 451.7C11.3 451.6 11.6 451.5 11.6 451.5C11.6 451.5 11.8 451.3 12 451C12.2 450.8 12.4 450.5 12.4 450.5C15 449 16.5 448.9 16.7 449C16 449.2 14.9 449.9 14.3 450.3C15.2 449.9 16.2 449.5 17.3 449C17.8 448.8 18.4 448.6 18.9 448.4L19.3 448.3C19.3 448.3 19.4 448.3 19.5 448.2C19.8 448.1 20.1 448.1 20.4 448C22.8 447.5 24.9 447 25.6 447L21.1 447.6C33.5 444.7 49.2 443.5 61.5 442.1L60.5 441.9C69.9 440.9 68.1 441.6 78.5 441L78.1 441.1C80.2 440.8 83 440.5 85.8 440.5C83.2 440.8 90.8 440.9 87.3 441.3C97.6 440.7 92.4 440.9 99.2 440L100.8 440.4C103.1 440.1 103.3 439.9 108.5 439.8C104.2 440.1 111.8 440.4 107 440.8C112.5 441.2 116.5 441.1 119.8 441C123.1 440.9 125.7 440.8 128.2 441.5C130.7 441.1 128.4 440.8 125.7 440.7C123.1 440.6 120.1 440.6 121.6 440.5C119.3 440.1 125.8 439.8 129.2 440C132.7 440.2 135.1 441.5 143.9 441.9C143 441.9 143 441.9 142.1 441.9C145.4 442.3 148.5 441.8 152.5 442.5C154.8 442 157.7 442.8 158.4 442.1L150.3 441.8C154.9 441.8 159.2 441.2 166.7 442.1C166.1 442.2 163.9 442.3 162.3 442.3C164.5 442.7 166.5 442.4 168.8 442.8C168.1 443.5 159 442.4 154.1 442.7C156.4 443.2 163.4 442.7 160.9 443.4C164.5 442.5 169.5 444.1 175.5 443.6L175.1 444C176 444 178 443.9 179.7 444L176.5 444.4C181.3 444.2 185.7 445.5 190.3 445.6C180.7 444.9 188.2 444.9 184.1 444.2C196 444.5 190.8 446 204.2 446.9C202.4 446.8 197.5 446 200.3 446.1C202.8 446.4 206.2 446.9 207.7 447.3C216.5 448 206.4 446.7 210.2 446.7C213.1 447.5 214.5 446.9 218.4 447V447.5C228.4 448.7 221.2 446.7 230.2 447.9L226.3 448.2L231 448.4L230 448.9C235.2 448.9 236.8 449.1 241.8 449.7C240.7 449.3 242.5 448.9 247 449.2C250 449.7 245.3 449.5 251.6 449.9C250.2 450.1 248.6 450.4 245.8 449.7C245.5 449.8 244.4 449.9 244.1 450C247.4 450.6 252.3 450.6 254.6 450.8C253.7 450.7 252.7 450.6 252.1 450.5L261.3 450.4C262.7 450.7 261.6 450.7 260.4 450.8C262.3 450.9 263.6 450.7 266.3 450.8C265.6 451.1 265.7 451.6 261.8 451.5H270.6C271.2 451.7 275.1 452.2 273.9 452.3C278.7 452.8 285.9 452.1 292.3 452.6C292.6 452.5 293.3 452.5 294.7 452.5C300.8 452.8 306.1 453.4 313.3 453L317.4 453.8C323 453.7 311.9 452.9 321.3 452.7C327.9 452.5 323.8 453.3 326.1 453.5C329.4 453.1 335.1 452.5 341.2 452.9C339.1 453.2 337.5 453.2 335.6 453.2ZM404.9 449.8C403.6 450 400.9 450.6 399.9 450.4C401.4 449.7 402.6 449.9 404.9 449.8ZM508.3 429.7C507.4 430.1 505.9 430.5 504.2 430.8C505.3 430.4 506.7 430.1 508.3 429.7ZM318.6 349.4C318.7 349.4 318.7 349.4 318.7 349.4C321.7 349.1 320.6 349.2 318.6 349.4ZM312.4 350C311.8 350.2 311.9 350.2 312.1 350.2C312.5 350 313.9 349.8 315.4 349.6C315.1 349.6 314.3 349.7 312.4 350ZM142.7 438.1L143.9 438.3C141.1 438.2 141.9 438.2 142.7 438.1Z" fill="#2B3E50"/>
<path d="M497 433.7C496.6 433.7 496.5 433.7 496.4 433.6C495.9 433.8 495.9 433.9 497 433.7Z" fill="#2B3E50"/>
<path d="M292.5 452.9H292.3C292.2 452.9 292.1 453 292.1 453L292.5 452.9Z" fill="#2B3E50"/>
<path d="M408.2 344.1C409.5 344.3 410.2 344.4 410.6 344.6C410.7 344.5 410.2 344.3 408.2 344.1Z" fill="#2B3E50"/>
<path d="M280.8 357.8C280.8 357.8 281.7 357.5 282.7 357.2C283.6 356.9 284.6 356.6 284.6 356.6C282.8 357.1 282.1 357.2 281.2 357.4C281.2 357.5 282 357.4 280.8 357.8Z" fill="#2B3E50"/>
<path d="M249.7 370.7C249.4 371.2 248.9 371.6 248.6 372.2H248.9C249.6 371.2 250.3 370.4 250.6 370.1C250.8 369.7 250.6 369.8 249.7 370.7Z" fill="#2B3E50"/>
<path d="M276.9 357.3C276.5 357 274.2 357.9 271.6 358.9C271.8 358.8 271.9 358.8 272.1 358.7C271.5 359.6 274.2 358.4 276.9 357.3Z" fill="#2B3E50"/>
<path d="M271 359.2C270.2 359.5 269.4 359.8 268.6 360.1C268.4 360.5 269.6 359.8 271 359.2Z" fill="#2B3E50"/>
<path d="M304.8 351.6C303.5 351.7 304.1 352.3 303.3 352.2C302 353 311.8 350.1 304.8 351.6Z" fill="#2B3E50"/>
<path d="M274.3 356.8L275.4 357C275.4 357 275.7 356.8 276.1 356.6C276.4 356.4 276.8 356.2 276.8 356.2L274.3 356.8Z" fill="#2B3E50"/>
<path d="M295.6 351.4L291.2 352.2C291.3 352.3 290.7 352.4 290.1 352.6C292.8 352 295.8 351.5 295.6 351.4Z" fill="#2B3E50"/>
<path d="M290.1 352.6C288.7 352.9 287.4 353.3 286.6 353.5C287.4 353.4 289 353 290.1 352.6Z" fill="#2B3E50"/>
<path d="M280.1 354.8L281.4 354.5L284.4 353.7C284.4 353.7 283.3 354 282.2 354.2C281.2 354.5 280.1 354.8 280.1 354.8Z" fill="#2B3E50"/>
<path d="M343 344.9L347.8 344.5C348.3 344.3 347 344.3 345.2 344.4C344 344.6 342.2 344.8 343 344.9Z" fill="#2B3E50"/>
<path d="M328.2 344.9C329.5 344.9 329.6 345 330.4 345L330.5 344.4L328.2 344.9Z" fill="#2B3E50"/>
<path d="M342.3 343.4C342.8 343.2 349.3 342.5 343.2 342.9C342.7 343.1 337.9 343.6 342.3 343.4Z" fill="#2B3E50"/>
<path d="M415.6 346.5L414.3 346.4L414.4 347.4L415.6 346.5Z" fill="#2B3E50"/>
<path d="M479.8 354.8C474.2 353.1 478.3 355 473.3 353.5C472.6 353.5 473.6 353.8 474.7 354.1C475.7 354.4 476.7 354.7 476 354.7C479.5 355.2 481.2 355.9 479.8 354.8Z" fill="#2B3E50"/>
<path d="M476 354.6C475.4 354.5 474.9 354.4 474.2 354.3C475.3 354.5 475.7 354.6 476 354.6Z" fill="#2B3E50"/>
<path d="M72.6 489.1L76.2 489.7L73.9 489.1H72.6Z" fill="#2B3E50"/>
<path d="M79.7 489.2L80.5 489.9L82.8 489.6C82 489.5 80.4 489.4 79.7 489.2Z" fill="#2B3E50"/>
<path d="M415.3 450.2L415.6 450C415 449.9 414.1 450 412.4 450.1L415.3 450.2Z" fill="#2B3E50"/>
<path d="M364.9 453.1H365.8L364.2 452.6L364.9 453.1Z" fill="#2B3E50"/>
<path d="M322.7 454.5C324.4 454.5 326.5 454.4 328.2 454.4C324.4 454.5 322.2 453.7 322.7 454.5Z" fill="#2B3E50"/>
<path d="M118.7 369.2C109.1 387.2 101.9 406.8 94.8 425.7C91.1 435.6 88.5 447.7 85.8 458C84.7 462.1 75.2 486.8 77.5 489.2C83 495 94.1 469.6 95.5 466.8C97.8 462.1 102.6 459.3 105.3 455C108.3 450.2 109.4 447.2 113.6 443C122.7 433.9 125.5 428.2 126.2 415C126.7 404.4 132.4 393.8 136.5 384C138.5 379.2 140.6 374.5 142.4 369.9C130.3 368.6 121.9 372 124.7 367" fill="#2B3E50"/>
<path d="M88.4 490C84.9 490.1 78.7 491.1 75.7 489.4C78.6 486.7 87.2 488.3 91.1 488.5C99.2 489.1 106.8 489 114.9 488.4C122.4 487.9 129.5 489.5 137 489.7C146.2 489.9 155.2 489.4 164.3 488.9C173.9 488.4 184.3 489 193.1 490.5C188.2 489.8 183.8 490.5 178.9 490.6C174.9 490.6 171 489.6 167.1 489.6C162.7 489.6 158.6 491 154.2 491.2C150 491.4 146.1 490.9 142 490.9C132.5 490.7 123.3 489.7 113.7 490.4C108.1 490.8 102.4 490 96.8 490.2C93.3 490.3 90.4 491.2 87.2 490H88.4Z" fill="#2B3E50"/>
<path d="M300.1 485.6C298.4 485.9 296.1 487.2 297.5 487.5C298.9 487.8 307.4 488 310.5 487.8C313.5 487.6 317.1 485.4 313.7 484.8C310.4 484.1 302 485.2 300.1 485.6Z" fill="#2B3E50"/>
<path d="M297.7 490.8C295.8 490.7 293.7 492.6 295.3 492.6C296.9 492.6 300.3 491 297.7 490.8Z" fill="#2B3E50"/>
<path d="M309.2 489.4C307.8 489.3 304.9 490.5 306.6 490.5C308.4 490.5 314.2 489.9 309.2 489.4Z" fill="#2B3E50"/>
<path d="M292.9 471.2C291.2 470.9 290.3 471.8 291.3 472.2C292.3 472.4 293.9 471.3 292.9 471.2Z" fill="#2B3E50"/>
<path d="M116.9 491.5C115.5 491.4 116.1 492.6 117.1 492.6C118.1 492.6 119.3 491.6 116.9 491.5Z" fill="#2B3E50"/>
<path d="M73.8 491.8C73 491.2 63.9 497.5 63.3 497.5C62.8 497.5 71.4 493.7 72.6 493.2C73.8 492.6 74.5 492.3 73.8 491.8Z" fill="#2B3E50"/>
<path d="M75.2 493.2C74.7 493.2 73.7 494.7 74.2 494.7C74.7 494.7 75.2 493.2 75.2 493.2Z" fill="#2B3E50"/>
<path d="M63.5 489.4C63.5 489.4 39.7 492.3 38.3 492C36.9 491.7 58.9 489.6 60.6 489.1C62.3 488.6 64 489.3 63.5 489.4Z" fill="#2B3E50"/>
<path d="M66.1 490.1C65.2 490.1 56 491.3 55 491.5C54 491.7 63.1 491.7 64.1 491.3C65 491 66.1 490.1 66.1 490.1Z" fill="#2B3E50"/>
<path d="M69.7 491.2C69.2 491.2 68.3 492.6 69.4 492.6C70.3 492.5 69.7 491.2 69.7 491.2Z" fill="#2B3E50"/>
<path d="M122.9 475.8C122.8 475.2 117.8 478.3 117.7 478.2C117.5 478.1 121.6 476.8 122.1 476.6C122.6 476.4 123 476.3 122.9 475.8Z" fill="#2B3E50"/>
<path d="M125.2 471.7C125.2 471.7 116.4 470.2 116.1 469.7C115.8 469.2 123.7 471.1 124.4 471C125 470.9 125.4 471.6 125.2 471.7Z" fill="#2B3E50"/>
<path d="M125.2 473C124.9 472.9 121.4 473.1 121 473.2C120.6 473.3 123.8 473.9 124.3 473.8C124.7 473.5 125.2 473 125.2 473Z" fill="#2B3E50"/>
<path d="M120.8 474.4C120.7 474.2 119.6 474.3 119.8 474.7C120 475 120.8 474.4 120.8 474.4Z" fill="#2B3E50"/>
<path d="M41.6 497.3C38.7 496.7 37 499.5 38.7 499C40.4 498.5 42.4 497.5 41.6 497.3Z" fill="#2B3E50"/>
<path d="M85.1 495.8C82.5 495.9 81.5 495.6 79.1 496.2C76.8 496.7 74.4 496.9 72 497.3C70.6 497.5 67.6 497.8 66.6 498.7C64.1 500.7 68.6 501.5 70.9 501.7C77.7 502.5 84.1 500.9 90.7 501.2C94 501.4 96 500.2 99.2 499.8C102.3 499.3 105.5 499.7 108.6 499.2C109.4 499.1 112.5 498.7 112.8 498C113.4 496.9 109.1 496.7 108.1 496.6C104 496.3 99.9 496.6 95.9 496.1C93.4 495.8 90.9 495.2 88.2 495.4C86.8 495.4 85.1 495.8 85.1 495.8Z" fill="#2B3E50"/>
<path d="M79.1 499.6C79.1 499.6 79.3 497.1 79.6 496.8C79.9 496.5 81 496.2 81.8 496.2C82.6 496.2 85.5 496 86.8 495.8C88.2 495.6 89.8 495.6 91.4 495.9C93.1 496.2 98.4 496.5 101.7 496.5C105 496.5 107.9 496.4 109.1 496.6C110.2 496.8 112.1 497.3 111.6 497.3C111.1 497.3 105.7 496.8 102.5 497.1C99.3 497.3 95.9 497.4 91.5 497.3C87.2 497.2 84.5 497.2 82.6 497.9C80.8 498.6 79.1 499.6 79.1 499.6Z" fill="#5C5C5C"/>
<path d="M75.1 497.2C75.1 497.2 76.2 498.6 76.3 499C76.4 499.4 76.5 499.9 76.5 499.9C76.5 499.9 75.1 499.4 73.9 499.4C72.7 499.5 70.5 499.5 69.3 499.6C68.1 499.7 66.1 500 66.6 499.5C67.1 499 67.9 498.4 71.1 497.9C74.2 497.3 75.1 497.2 75.1 497.2Z" fill="#5C5C5C"/>
<path d="M81.2 496.4C80.4 496.4 79.8 496.9 79.6 497.3C79.4 497.7 79.6 498.3 79.6 498.3C79.6 498.3 81.5 497.3 82.9 497.2C84.3 497.1 86.9 496.5 89.2 496.7C91.5 496.8 94.3 496.9 95.5 497C96.7 497.1 98.6 497 98.6 497C98.6 497 93.8 496.7 91.7 496.4C89.6 496.1 87.3 496.3 85.1 496.3C83 496.4 81.4 496.4 81.2 496.4Z" fill="#C4C4C4"/>
<path d="M75.8 498.7C75.8 498.7 75 497.6 75 497.5C74.9 497.4 73.2 497.7 72.2 497.8C71.2 497.9 68.3 498.4 67.8 498.8C67.2 499.1 67.3 499.3 67.4 499.2C67.6 499.1 70.7 498.3 71.5 498.3C72.3 498.2 73.9 498.3 74.4 498.4C74.9 498.5 75.8 498.7 75.8 498.7Z" fill="#C4C4C4"/>
<path d="M68.9 500.9C68.9 500.9 72.8 501.9 78.4 501.4C84 500.9 88.4 500.6 90.1 500.8C91.8 500.9 93.7 500.6 95.8 500C97.9 499.5 102.3 498.9 104 498.9C105.8 499 107.6 498.8 109 498.6C110.4 498.4 112 497.8 112 497.8C112 497.8 109 498.6 106.2 498.6C103.4 498.6 98.4 498.9 95.2 499.7C91.9 500.5 87.4 500.5 84.6 500.6C81.7 500.8 74.7 501.7 68.9 500.9Z" fill="#5C5C5C"/>
<path d="M195.7 490.2C197.1 489.9 202.7 489.9 204.7 489.2C206.6 488.6 194.1 484.7 191.7 484.1C189.3 483.5 145.5 480.3 137.9 479.5C130.4 478.7 121.7 473.4 125.1 472.9C128.5 472.4 140.1 470.8 141.9 471C143.7 471.2 155.7 469.4 158.5 469.2C161.4 469 184.6 471.6 188.7 471.6C192.9 471.6 203.9 471.9 199.7 472.6C195.5 473.2 177.9 473.1 171.2 471.2C164.5 469.3 149.9 471 147 471.4C144.1 471.7 137.4 472 135.8 472.8C134.2 473.6 132 474.1 133.2 475.4C134.5 476.7 132.2 476.2 133.7 477.2C135.1 478.2 143 479.6 146.3 479.4C149.7 479.2 168.7 480.2 171.9 480.8C175.1 481.4 179.9 481.9 185.5 482.4C191.1 482.9 197.8 483 202 483.7C206.2 484.3 209.2 486.4 211.9 487.1C214.6 487.7 216.7 489.7 215.4 490.9C214.1 492.2 210.4 490.7 207.4 491.4C204.4 492 195.1 491.9 193.6 491.4C192.2 490.9 182.7 490.3 184.5 490C186.5 489.6 195.7 490.2 195.7 490.2Z" fill="#2B3E50"/>
<path d="M206.3 472.3C207.2 472.2 226.3 472.7 231.5 472.3C236.7 471.9 256.3 471.7 262.3 471.3C268.3 470.9 274.4 474.5 278.7 474.4C283 474.3 301.3 477.6 303.8 479.3C306.3 481 300.6 483.6 298.4 484C296.2 484.4 291.8 483 291 483C290.2 483 294.6 485.2 300 484.3C305.4 483.5 308.3 480.7 307.4 479.1C306.6 477.5 297.7 474.9 294.9 474.4C292.1 473.9 281.3 472.5 277.9 471.8C274.4 471.1 268.4 469.3 265.8 469.5C263.2 469.7 259.8 468.5 256.3 468.9C252.8 469.3 235.9 471.1 231 470.7C226.1 470.3 212.9 471.1 210.8 471.2C208.8 471.4 204.4 472.4 206.3 472.3Z" fill="#2B3E50"/>
<path d="M218.4 489.6C218 489.9 217.5 490.9 217.5 490.9C217.5 490.9 219 492 219.5 492C220 492.1 222.6 492.7 223 492.9C223.4 493.1 222.2 492.3 221.3 492C220.3 491.7 220 491 220 491C220 491 223.5 491.6 224.4 491.8C225.3 492 227.6 492.6 227.6 492.6C227.6 492.6 224.5 491.5 223.1 490.9C221.7 490.3 220.3 490.5 220.8 490.1C221.3 489.7 224.8 489.1 224.8 489.1C224.8 489.1 222.3 489.1 221.6 489C220.8 488.8 219 489.2 218.4 489.6Z" fill="#2B3E50"/>
<path d="M217.1 490.3C216.8 490.3 216.6 490.7 216.7 490.8C216.7 491 217.2 491.2 217.3 491.4C217.4 491.5 216.9 490.9 217.1 490.8C217.3 490.6 217.1 490.3 217.1 490.3Z" fill="#2B3E50"/>
<path d="M217.5 489C217.3 489.1 217.1 489.3 217.2 489.5C217.4 489.8 217.8 490.1 217.9 489.8C218 489.5 218.7 488.9 218.8 488.9C219 488.9 217.7 488.8 217.5 489Z" fill="#2B3E50"/>
<path d="M221.4 487.4C221.1 487.4 220.8 487.8 221 487.9C221.2 488 222.4 487.9 222.5 487.8C222.6 487.6 221.5 487.4 221.4 487.4Z" fill="#2B3E50"/>
<path d="M226 487C225.8 487 225.7 487.5 225.7 487.5C225.7 487.5 227 487 226 487Z" fill="#2B3E50"/>
<path d="M227.2 491.1C226.9 491.1 228.3 491.9 229 491.9C229.6 491.9 228.2 491.2 227.2 491.1Z" fill="#2B3E50"/>
<path d="M219 494.8C218.6 494.5 219.8 496.1 220.2 496.4C220.6 496.7 219.6 495.3 219 494.8Z" fill="#2B3E50"/>
<path d="M215.2 492.2C215.1 492.6 215.3 493.2 215.5 493.3C215.7 493.5 215.2 492.2 215.2 492.2Z" fill="#2B3E50"/>
<path d="M213 490.5C212.8 490.6 212.7 491.1 213 491.1C213.2 491.1 213.1 490.5 213 490.5Z" fill="#2B3E50"/>
<path d="M216.1 485.7C215.9 485.7 215.6 486.4 215.8 486.3C216 486.1 216.3 485.7 216.1 485.7Z" fill="#2B3E50"/>
<path d="M147 496.5C143.6 496.2 139.6 497 135.7 497.9C131.9 498.9 138.8 500.5 144.6 499.8C150.4 499.2 152.3 497 147 496.5Z" fill="#2B3E50"/>
<path d="M283.2 479.6C279.2 479.3 273.1 478.2 264.2 477.7C255.2 477.2 246.9 478.7 241.6 478.5C236.3 478.3 247.7 481.9 255.8 482.2C264 482.5 272 484.6 273.6 485.1C275.2 485.6 273 486.2 269 486.7C265 487.2 267.2 489.9 271.1 490.2C274.9 490.5 279.4 490.4 283.6 490.5C287.8 490.7 292.4 489.7 294.3 489.1C296.2 488.5 293.8 486.9 291.1 485.4C288.4 484 287.3 480.8 288.4 481.1C289.4 481.4 288.3 480 283.2 479.6Z" fill="#2B3E50"/>
<path d="M292.8 481.2C294.4 481.6 288.6 481.4 289.8 482.5C291 483.6 292.1 483.8 294.4 484.1C296.7 484.3 297.9 484.2 299.6 483.6C301.3 483 301.3 482.4 299.6 482.2C297.9 482 296.1 481.6 297 481C297.7 480.3 291.5 480.8 292.8 481.2Z" fill="#2B3E50"/>
<path d="M196.1 484C197.1 483.6 202.7 483.9 204.1 485C205.5 486.1 208.2 486.9 209.6 487.3C211 487.7 212.8 488.1 213.4 488.7C214 489.3 211.8 489.8 210.4 489.7C209 489.6 206.7 489.7 205.5 489.8C204.3 489.9 202.6 490 202.6 490C202.6 490 204.5 489.5 205.6 489.2C206.7 488.8 205.7 487.9 204.3 487.2C202.9 486.5 200.1 485.3 198.5 485C197.1 484.8 195.1 484.4 196.1 484Z" fill="#333333"/>
<path d="M206.8 487.5C206 487.6 208.5 488.4 208.1 488.6C207.6 488.8 206.7 489.1 208 489C209.4 488.9 210.5 488.6 209.7 488.3C209 488 207.7 487.5 206.8 487.5Z" fill="#696969"/>
<path d="M200.5 484.4C199.9 484.3 198.1 484 197.4 484.1C196.7 484.2 199.4 484.5 200.2 484.6C200.9 484.8 202.7 485.2 203.1 485.4C203.6 485.7 202.9 484.7 200.5 484.4Z" fill="#696969"/>
<path d="M267.9 488C267.9 488.5 268.4 489.5 274.1 489.8C279.8 490.1 286.5 490.4 289.1 489.9C291.7 489.4 294.3 489.3 293.9 488.2C293.5 487.2 292.5 487.2 292.5 487.2C292.5 487.2 293.9 488.2 291.1 488.8C288.2 489.4 282.5 489.1 279.3 489.1C276.2 489.1 272.5 489 270.7 488.9C268.9 488.7 267.9 488 267.9 488Z" fill="#696969"/>
<path d="M241.6 479.2C241.6 479.2 246.8 480.7 250.8 481.2C254.8 481.7 261.2 482.1 266 483C270.8 483.9 272 484.4 273.3 484.8C274.6 485.1 274.7 485.7 274.7 485.7C274.7 485.7 274.9 484.8 274 484.3C273.1 483.7 266.6 481.8 259.4 481.6C252.2 481.2 243 478.7 241.6 479.2Z" fill="#696969"/>
<path d="M116.4 371.4C104.1 382.2 89 375 75.3 372.9C87.7 372.9 103 376.9 113.9 369.1C102.3 368.1 89 372.2 80.5 360.7C74.1 352.1 78.5 333 83.9 325.6C80.1 342.6 91.9 364.9 112.3 354C96.4 356.4 86.8 324.1 87.8 312.7C89.8 288 118.7 305.4 102.8 321.4C107.1 306.2 90.7 311.5 94.8 324.7C97.9 334.9 110.6 338.6 120.1 338.1C114.8 331.9 119.7 321.9 112.7 316.6C123.5 316.7 114.2 337.9 126.8 338.1C130.2 326.9 131.7 314.8 127.7 303.6C125 296.2 113.9 280 106 292.9C109.4 285.8 117 282.8 123.1 287.2C130.1 292.1 130.6 304 132.9 309.8C131.9 294.5 126.7 278.3 132.7 263.4C133.5 274 130.6 285.2 136.7 294.4C136.4 274.9 135.9 255.5 140.6 236.9C145.2 218.5 157 199.9 165.2 183C162.4 198 155.9 212 157.1 227.8C165.6 210 175.3 188.9 187.1 171.7C201.5 150.8 230.1 143.9 243.2 122.9C235.8 137.9 223.8 149.6 215.4 164C207 178.3 204.4 191.3 200.7 206.7C212.1 192.1 215.9 173.8 225.6 158.5C235.4 143.1 250.3 129.3 266.6 121C292.4 108 322.9 110.2 349.9 104.8C367.8 101.2 397.8 101.5 407.8 82.4C404.4 94.3 403.1 102.6 396.8 113.6C403.2 105.9 405.6 98.2 409.1 89.5C411.8 82.7 410.7 84.4 418.3 84.4C422.9 84.4 426.7 83.2 431.1 82.1C440.2 80 445.1 75.2 452.3 69.5C459.2 64.1 467.2 62 473.2 55.3C470.6 63.4 469.7 71.2 466.5 79C474.3 72.9 470.1 62.4 475.5 55.8C479.8 50.6 490.7 50.2 496.4 45.9C503.6 40.5 513.9 36.6 518.2 28.8C522.5 21 523.5 11.5 522 0.600006C543.8 25.8 523.5 76.4 503.2 97.9C493.4 108.3 480.2 115.6 469.4 124.3C459.1 132.7 448.7 144 434.8 145.2C422.4 146.2 407.9 141.4 396.4 141.4C407.7 141.5 418.2 145.1 427.8 151.2C401.6 160.3 380.7 177.8 357.5 193.4C331.5 210.9 330.2 248.5 315.5 273.7C312.5 278.8 309.2 284.2 305.1 288.6C300.9 293 294.8 294.5 289.2 297.8C278.9 303.8 269.4 310.4 258.4 314.9C249.2 318.7 238.5 321.9 228.4 322.4C218.2 322.9 205.8 322.6 197.1 329.2C205.4 330 213.7 327.6 222.4 327.7C229.7 327.8 241.9 331.1 247.6 325.6C225 337.1 198.1 355.2 172.3 355.5C186.4 355.5 204 358 216.1 350.9C208.7 356.4 198.4 361.1 189.4 363C180.5 364.9 170.5 362.2 161.8 365.3C175.4 363.2 182.7 378.9 196 374.4C189 375.3 183.9 377.4 177.1 374.5C171.7 372.1 166.8 367.5 160.3 372C165.1 374.8 168.7 379.3 173.5 382.5C180 386.8 186.5 387.7 193 389.8C176.4 392.2 169.6 387.2 158.7 376.5C158 380.5 159.3 384.3 159.1 388.2C158 383 155.7 378.8 151.2 375.7C149.8 383.4 151.9 392.5 151.1 400.4C150.4 407.8 149.9 415.1 153.2 421.9C143.1 411.9 145.7 398.7 145.1 385.4C144.6 376.6 145 373.1 136.7 372.5C132.5 372.2 119.1 376.2 118.8 369.6" fill="#2B3E50"/>
<path d="M279.1 191.7C279.1 191.7 131 306.8 102.9 426.9C102.9 426.9 104.9 437.9 119.9 413.9C119.9 414 141 321.9 279.1 191.7Z" fill="white"/>
<path d="M118.9 364.9C118.9 364.9 184 180.7 463.2 93.6C463.3 93.6 223 161.7 118.9 364.9Z" fill="white"/>
<path d="M116.4 433.5C108.6 442.2 100.8 450.5 92.9 459C86.7 465.5 83.5 478.1 80.9 486.4C85.1 486.8 88.9 475.7 90.7 472.5C93.6 467.3 96.1 462.5 99.9 458.1C103.3 454.2 105.7 449.6 109.1 445.8C113.1 441.4 117.9 437.3 119.2 431.5C118.2 431.1 118.2 431.7 117.8 431.9" fill="#454545"/>
<path d="M77.9 485.5C77.9 485.5 78.1 485.4 78.4 485C78.7 484.6 79.1 484 79.5 483.2C80.3 481.5 81.2 479 82.2 476.1C83.2 473.1 84.3 469.6 85.7 465.8C86.4 463.9 87.1 462 87.9 460.1C88.3 459.1 88.8 458.2 89.3 457.3C89.6 456.8 89.9 456.4 90.2 456C90.6 455.6 90.9 455.2 91.3 454.8C92.8 453.3 94.1 451.7 95.4 450C96.7 448.4 97.9 446.7 99.2 445.2C100.5 443.7 101.9 442.3 103.4 441.3C104.9 440.2 106.3 439.3 107.7 438.5C109 437.7 110.3 436.9 111.3 436.1C112.3 435.3 113.2 434.6 113.8 433.9C114.1 433.6 114.4 433.2 114.6 433C114.8 432.7 115 432.5 115.1 432.3C115.4 431.9 115.5 431.7 115.5 431.7C115.5 431.7 115.4 431.9 115.1 432.4C115 432.6 114.8 432.9 114.6 433.2C114.4 433.5 114.1 433.8 113.8 434.2C113.2 434.9 112.4 435.7 111.4 436.5C110.4 437.3 109.2 438.1 107.9 439C106.6 439.9 105.1 440.8 103.7 441.9C102.2 443 100.9 444.3 99.6 445.8C98.3 447.3 97.1 448.9 95.9 450.6C94.7 452.3 93.3 454 91.8 455.4C90.2 456.8 89.3 458.7 88.4 460.6C87.6 462.5 86.8 464.4 86.2 466.3C84.9 470 83.7 473.5 82.6 476.5C81.5 479.5 80.5 481.9 79.7 483.6C79.3 484.4 78.9 485 78.6 485.4C78.1 485.4 77.9 485.5 77.9 485.5Z" fill="white"/>
</svg>
